<svg width="32" height="32" viewBox="0 0 32 32" fill="none" xmlns="http://www.w3.org/2000/svg">
<path d="M4 4C4 1.79063 5.79063 0 8 0H18V10H28V28C28 30.2062 26.2062 32 24 32H8C5.79063 32 4 30.2062 4 28V4Z" fill="#80B7E5"/>
<path d="M18.0028 10V0L28.0028 10H18.0028Z" fill="#00437A"/>
<path d="M6.55485 23.2562C6.05165 23.2562 5.80005 23.1178 5.80005 22.8411V14.815C5.80005 14.5383 6.05165 14.3999 6.55485 14.3999H6.93225C7.24256 14.3999 7.45642 14.4251 7.57383 14.4754C7.69963 14.5257 7.79188 14.618 7.85059 14.7521L9.10859 17.5952C9.17568 17.7546 9.2302 17.9055 9.27213 18.0481C9.31406 18.1907 9.3518 18.3207 9.38535 18.4381C9.41051 18.3207 9.43986 18.1907 9.47341 18.0481C9.51534 17.9055 9.57405 17.7546 9.64953 17.5952L10.9201 14.7521C10.9788 14.618 11.0669 14.5257 11.1843 14.4754C11.3101 14.4251 11.5281 14.3999 11.8384 14.3999H12.2158C12.719 14.3999 12.9706 14.5383 12.9706 14.815V22.8411C12.9706 23.1178 12.719 23.2562 12.2158 23.2562H11.9139C11.4107 23.2562 11.1591 23.1178 11.1591 22.8411V19.13C11.1591 19.0126 11.1633 18.8952 11.1717 18.7777C11.1801 18.6603 11.1969 18.5471 11.222 18.4381L11.1717 18.4255C11.1382 18.5261 11.0962 18.6268 11.0459 18.7274C11.004 18.8197 10.962 18.9161 10.9201 19.0168L10.2156 20.627C10.1234 20.8283 9.88016 20.9289 9.48599 20.9289H9.27213C8.86118 20.9289 8.60958 20.8283 8.51733 20.627L7.85059 19.0168C7.81704 18.9245 7.7793 18.8281 7.73737 18.7274C7.69544 18.6268 7.6535 18.5261 7.61157 18.4255L7.56125 18.4381C7.57802 18.5471 7.5906 18.6603 7.59899 18.7777C7.60738 18.8952 7.61157 19.0126 7.61157 19.13V22.8411C7.61157 23.1178 7.35997 23.2562 6.85677 23.2562H6.55485Z" fill="#00437A"/>
<path d="M22.9416 23.2311C22.4384 23.2311 22.1868 23.0927 22.1868 22.8159V16.0479H20.7778C20.5262 16.0479 20.4004 15.8382 20.4004 15.4189V15.0289C20.4004 14.6096 20.5262 14.3999 20.7778 14.3999H25.5456C25.7972 14.3999 25.923 14.6096 25.923 15.0289V15.4189C25.923 15.8382 25.7972 16.0479 25.5456 16.0479H24.1367V22.8159C24.1367 23.0927 23.8851 23.2311 23.3819 23.2311H22.9416Z" fill="#00437A"/>
<path d="M14.5548 23.2562C14.0516 23.2562 13.8 23.1178 13.8 22.8411V14.815C13.8 14.5383 14.0516 14.3999 14.5548 14.3999H14.9951C15.4983 14.3999 15.7499 14.5383 15.7499 14.815V17.9097H17.9011V14.815C17.9011 14.5383 18.1527 14.3999 18.6559 14.3999H19.0962C19.5994 14.3999 19.851 14.5383 19.851 14.815V22.8411C19.851 23.1178 19.5994 23.2562 19.0962 23.2562H18.6559C18.1527 23.2562 17.9011 23.1178 17.9011 22.8411V19.5577H15.7499V22.8411C15.7499 23.1178 15.4983 23.2562 14.9951 23.2562H14.5548Z" fill="#00437A"/>
</svg>
