<svg fill="none" height="14" viewBox="0 0 14 14" width="14" xmlns="http://www.w3.org/2000/svg" xmlns:xlink="http://www.w3.org/1999/xlink"><clipPath id="a"><path d="m0 0h14v14h-14z"/></clipPath><g clip-path="url(#a)"><path d="m2.95703 10.9138c.30178.1882.80345.3974 1.33389.3974.483 0 .93178-.14 1.30356-.3788 0 0 .00077 0 .00155-.0007l1.40389-.8774v3.1679c-.22244 0-.44644-.0607-.64089-.182z" fill="#225086"/><path d="m6.10789 1.1721-5.833337 6.58c-.450334.50867-.3328892 1.27712.251222 1.64189 0 0 2.159115 1.34941 2.431335 1.51981.30178.1882.80344.3974 1.33389.3974.483 0 .93177-.14 1.30355-.3788 0 0 .00078 0 .00156-.0007l1.40389-.8774-3.39423-2.12175 3.39501-3.82978v-3.324999c-.32978 0-.65956.131444-.89289.394329z" fill="#6df"/><path d="m3.60596 7.93256.04044.02489 3.35378 2.09685h.00078v-5.95074l-.00078-.00078z" fill="#cbf8ff"/><path d="m13.4744 9.39398c.5841-.36478.7016-1.13322.2512-1.64189l-3.8274-4.31744c-.30878-.14389-.65489-.22634-1.02122-.22634-.71945 0-1.36267.31034-1.79045.798l-.08478.09567 3.39425 3.82978-3.39502 2.12174v3.1679c.22322 0 .44566-.0606.64011-.182l5.83331-3.6462z" fill="#074793"/><path d="m7.00078.777771v3.324999l.08478-.09567c.42777-.48766 1.071-.798 1.79044-.798.36711 0 .71244.08323 1.02122.22634l-2.00589-2.26256c-.23255-.262887-.56233-.394331-.89133-.394331z" fill="#0294e4"/><path d="m10.3952 7.93258-3.39422-3.829v5.95002z" fill="#96bcc2"/></g></svg>