<svg version="1.1" id="Layer_1" xmlns="http://www.w3.org/2000/svg" xmlns:xlink="http://www.w3.org/1999/xlink" x="0px" y="0px"
	 viewBox="0 0 32 32" style="enable-background:new 0 0 32 32;" xml:space="preserve">
<style type="text/css">
	.Blue{fill:#1177D7;}
</style>
<path class="Blue" d="M24.5542 20.8299L29.8259 15.7322L26.3695 15.6742C26.4653 9.971 21.8774 5.2264 16.1742 5.13063C13.0634 5.07839 10.275 6.41454 8.33767 8.54291L10.7166 11.0031C12.0389 9.46942 13.9573 8.46441 16.1176 8.50069C19.9197 8.56454 22.9783 11.7276 22.9145 15.5297L19.458 15.4717L24.5542 20.8299Z" />
<path class="Blue" d="M23.6625 22.4571L21.285 19.9106C19.9627 21.4442 18.0443 22.4492 15.884 22.413C12.0819 22.3491 9.02328 19.186 9.08713 15.3839L12.5436 15.442L7.44596 10.1702L2.17419 15.2678L5.63066 15.3259C5.53489 21.0291 10.1228 25.7736 15.8259 25.8694C18.9367 25.9217 21.7251 24.5855 23.6625 22.4571Z" />
</svg>
