<svg fill="none" height="16" viewBox="0 0 16 16" width="16" xmlns="http://www.w3.org/2000/svg" xmlns:xlink="http://www.w3.org/1999/xlink"><linearGradient id="a" gradientUnits="userSpaceOnUse" x1="7.13798" x2="2.63115" y1="2.11468" y2="15.429"><stop offset="0" stop-color="#114a8b"/><stop offset="1" stop-color="#0669bc"/></linearGradient><linearGradient id="b" gradientUnits="userSpaceOnUse" x1="8.54585" x2="7.50335" y1="8.31948" y2="8.67198"><stop offset="0" stop-opacity=".3"/><stop offset=".071" stop-opacity=".2"/><stop offset=".321" stop-opacity=".1"/><stop offset=".623" stop-opacity=".05"/><stop offset="1" stop-opacity="0"/></linearGradient><linearGradient id="c" gradientUnits="userSpaceOnUse" x1="7.97247" x2="12.9196" y1="1.7263" y2="14.9065"><stop offset="0" stop-color="#3ccbf4"/><stop offset="1" stop-color="#2892df"/></linearGradient><path d="m5.55632 1.09068h4.33966l-4.505 13.34782c-.0463.1372-.13445.2564-.25204.3408s-.25869.1299-.40346.1299h-3.37733c-.10968 0-.21779-.0261-.31538-.0762-.097595-.05-.181864-.1226-.245841-.2117-.063976-.0891-.10582-.1921-.122069-.3006-.01625-.1085-.006438-.2193.028623-.3232l4.197167-12.43615c.04628-.13722.13445-.25646.25207-.34092.11763-.08447.25879-.12974.4036-.12975z" fill="url(#a)"/><path d="m11.8625 10.0435h-6.88166c-.06398-.0001-.1265.0191-.17941.0551s-.09376.087-.11723.1466c-.02348.0595-.02848.1247-.01436.1871.01411.0624.0467.1191.0935.1627l4.422 4.1274c.12875.12.29827.1868.47433.1868h3.89663z" fill="#0078d4"/><path d="m5.55635 1.09064c-.14639-.00056-.28913.0457-.40736.13203s-.20576.2082-.24981.34781l-4.190497 12.41562c-.03742.1043-.049168.2161-.03425.3259s.056063.2144.119955.305c.063891.0905.14865.1643.247102.2152.09846.0508.20771.0772.31853.0769h3.4645c.12903-.023.24963-.0799.34948-.1648s.17537-.1948.21885-.3185l.83567-2.4628 2.985 2.7841c.12508.1035.282.1607.44433.162h3.88215l-1.7026-4.8656-4.96355.0011 3.03783-8.95396z" fill="url(#b)"/><path d="m11.0991 1.56064c-.0462-.137-.1342-.25604-.2517-.34036-.1174-.08431-.2583-.12966-.4029-.12964h-4.83653c.14458.00001.28551.04536.40295.12967.11744.08432.20548.20335.25172.34033l4.19736 12.43666c.0351.1039.0449.2148.0287.3233-.0163.1085-.0581.2115-.1221.3007-.064.0891-.1482.1617-.2458.2118-.0977.0501-.20579.0762-.31549.0762h4.83669c.1097 0 .2178-.0262.3154-.0763.0975-.0501.1818-.1227.2458-.2118.0639-.0891.1057-.1922.122-.3007.0162-.1085.0064-.2193-.0287-.3232z" fill="url(#c)"/></svg>