<svg version="1.1" xmlns="http://www.w3.org/2000/svg" xmlns:xlink="http://www.w3.org/1999/xlink" x="0px" y="0px"
	 viewBox="0 0 32 32" style="enable-background:new 0 0 32 32;" xml:space="preserve">
<style type="text/css">
	.Yellow{fill:#FFB115;}
    .Red{fill:#D11C1C;}
</style>
<path class="Yellow" d="M18.2547 28H4.00002C2.80002 28 2.40002 27.2001 3.00002 26.2001L14.9 4.80005C15.5 3.80005 16.4 3.80005 17 4.80005L24.2427 17.0042C24.1621 17.0014 24.0812 17 24 17C20.6874 17 17.9122 19.3011 17.1856 22.3919C16.8533 22.1459 16.4429 22 16 22C14.9 22 14 22.9 14 24C14 25.1 14.9 26 16 26C16.4429 26 16.8533 25.8542 17.1856 25.6082C17.3904 26.4795 17.7581 27.2881 18.2547 28ZM14 20H18V13C18 12.4 17.6 12 17 12H15C14.4 12 14 12.4 14 13V20Z" />
<path class="Red" d="M24 18C20.7 18 18 20.7 18 24C18 27.3 20.7 30 24 30C27.3 30 30 27.3 30 24C30 20.7 27.3 18 24 18ZM27 25.7143L25.7143 27L24 25.2857L22.2857 27L21 25.7143L22.7143 24L21 22.2857L22.2857 21L24 22.7143L25.7143 21L27 22.2857L25.2857 24L27 25.7143Z" />
</svg>
