<svg version="1.1" id="Layer_1" xmlns="http://www.w3.org/2000/svg" xmlns:xlink="http://www.w3.org/1999/xlink" x="0px" y="0px"
	 viewBox="0 0 32 32" style="enable-background:new 0 0 32 32;" xml:space="preserve">
<style type="text/css">
	.Orange{fill:#FF7200;}
</style>
<path class="Orange" d="M24.001 14.0011C22.5124 14.0011 21.2316 14.8232 20.544 16.0296C20.3646 16.0164 20.1882 16.0011 20.001 16.0011C15.9048 16.0011 12.0186 12.8812 10.5999 9.01806C11.4527 8.28462 12 7.21072 12 6C12 3.792 10.208 2 8 2C5.792 2 4 3.792 4 6C4 7.47564 4.80788 8.75206 6 9.44608V22.555C4.80788 23.248 4 24.5244 4 26C4 28.2068 5.792 30 8 30C10.208 30 12 28.2068 12 26C12 24.5232 11.1921 23.248 10 22.555V15.3585C12.6305 18.1412 16.2616 20 20 20C20.1992 20 20.3634 19.9869 20.543 19.9803C21.2348 21.1812 22.5156 22 24 22C26.2068 22 28 20.2068 28 18C28 15.7931 26.208 14.0011 24.001 14.0011ZM8.0011 28.001C6.89764 28.001 6.0011 27.1068 6.0011 26.001C6.0011 24.8976 6.89764 24.001 8.0011 24.001C9.10782 24.001 10.0011 24.8976 10.0011 26.001C10.0011 27.1068 9.10782 28.001 8.0011 28.001ZM8.0011 8C6.89764 8 6.0011 7.10674 6.0011 6C6.0011 4.89326 6.89764 4 8.0011 4C9.10782 4 10.0011 4.89326 10.0011 6C10.0011 7.10674 9.10782 8 8.0011 8ZM24.001 20.001C22.8976 20.001 22.001 19.1067 22.001 18.0011C22.001 16.8955 22.8976 16.0011 24.001 16.0011C25.1068 16.0011 26.001 16.8944 26.001 18.0011C26.001 19.1078 25.1068 20.001 24.001 20.001Z"/>
</svg>
