<svg version="1.1" id="Layer_1" xmlns="http://www.w3.org/2000/svg" xmlns:xlink="http://www.w3.org/1999/xlink" x="0px" y="0px"
	 viewBox="0 0 32 32" style="enable-background:new 0 0 32 32;" xml:space="preserve">
<style type="text/css">
	.Yellow{fill:#FFB115;}
    .Red{fill:#D11C1C;}
</style>
<path class="Red" d="M27.0584 16.0851L29.1398 20.788L29.0614 20.8227L27.4938 21.5165L24.4369 22.8694L25.5292 20.0426C24.5116 19.6494 23.3629 19.5954 22.2655 20.081C20.3844 20.9136 19.4065 22.9398 19.8125 24.916L18.2448 25.6098C17.4573 22.7714 18.8284 19.7275 21.5718 18.5134C23.061 17.8543 24.7494 17.8569 26.1409 18.4596L27.0584 16.0851ZM25.7345 27.9191C24.6372 28.4048 23.4884 28.3507 22.4708 27.9575L23.5631 25.1308L20.5062 26.4836L18.9386 27.1774L18.8602 27.2121L20.9416 31.915L21.8591 29.5405C23.329 30.1085 24.939 30.1458 26.4283 29.4867C29.1716 28.2726 30.5427 25.2287 29.7552 22.3903L28.1876 23.0841C28.5935 25.0603 27.6156 27.0866 25.7345 27.9191Z" />
<path class="Yellow" d="M18.2547 28H4.00002C2.80002 28 2.40002 27.2001 3.00002 26.2001L14.9 4.80005C15.5 3.80005 16.4 3.80005 17 4.80005L24.2426 17.0041C24.1621 17.0014 24.0812 17 24 17C20.6874 17 17.9122 19.301 17.1856 22.3919C16.8533 22.1459 16.4428 22 16 22C14.9 22 14 22.9 14 24C14 25.1 14.9 26 16 26C16.4429 26 16.8533 25.8542 17.1856 25.6081C17.3905 26.4795 17.7581 27.2881 18.2547 28ZM14 20H18V13C18 12.4 17.6 12 17 12H15C14.4 12 14 12.4 14 13V20Z" />
</svg>
