<?xml version="1.0" encoding="iso-8859-1"?>
<!-- Uploaded to: SVG Repo, www.svgrepo.com, Generator: SVG Repo Mixer Tools -->
<svg height="800px" width="800px" version="1.1" id="Layer_1" xmlns="http://www.w3.org/2000/svg" xmlns:xlink="http://www.w3.org/1999/xlink" 
	 viewBox="0 0 469.333 469.333" xml:space="preserve">
<g>
	<path style="fill:#FFFFFF;" d="M286.923,128c0.704-3.445,1.077-7.008,1.077-10.667C288,87.883,264.117,64,234.667,64
		s-53.333,23.883-53.333,53.333c0,3.659,0.373,7.221,1.077,10.667H286.923z"/>
	<path style="fill:#FFFFFF;" d="M458.667,384.032c0,11.765-9.536,21.301-21.301,21.301H31.968c-11.765,0-21.301-9.536-21.301-21.301
		V149.301c0-11.765,9.536-21.301,21.301-21.301h405.397c11.765,0,21.301,9.536,21.301,21.301V384.032z"/>
</g>
<circle style="fill:#D94452;" cx="138.667" cy="266.667" r="85.333"/>
<path d="M437.365,117.333H298.667c0-35.296-28.704-64-64-64s-64,28.704-64,64H31.968C14.336,117.333,0,131.68,0,149.301v234.731
	C0,401.653,14.336,416,31.968,416h405.397c17.632,0,31.968-14.347,31.968-31.968V149.301
	C469.333,131.68,454.997,117.333,437.365,117.333z M234.667,74.667c23.531,0,42.667,19.136,42.667,42.667H192
	C192,93.803,211.136,74.667,234.667,74.667z M448,384.032c0,5.867-4.768,10.635-10.635,10.635H31.968
	c-5.867,0-10.635-4.768-10.635-10.635V149.301c0-5.867,4.768-10.635,10.635-10.635h405.397c5.867,0,10.635,4.768,10.635,10.635
	V384.032z"/>
<path d="M138.667,362.667c-52.928,0-96-43.061-96-96s43.072-96,96-96s96,43.061,96,96S191.595,362.667,138.667,362.667z
	 M138.667,192C97.493,192,64,225.504,64,266.667s33.493,74.667,74.667,74.667s74.667-33.504,74.667-74.667S179.84,192,138.667,192z"
	/>
<path style="fill:#FFFFFF;" d="M170.667,250.667h-16v-16c0-8.843-7.157-16-16-16s-16,7.157-16,16v16h-16c-8.843,0-16,7.157-16,16
	c0,8.843,7.157,16,16,16h16v16c0,8.843,7.157,16,16,16s16-7.157,16-16v-16h16c8.843,0,16-7.157,16-16
	C186.667,257.824,179.509,250.667,170.667,250.667z"/>
<path d="M416,213.333H277.333c-5.888,0-10.667-4.768-10.667-10.667S271.445,192,277.333,192H416c5.888,0,10.667,4.768,10.667,10.667
	S421.888,213.333,416,213.333z"/>
<path d="M309.333,256h-32c-5.888,0-10.667-4.768-10.667-10.667c0-5.899,4.779-10.667,10.667-10.667h32
	c5.888,0,10.667,4.768,10.667,10.667C320,251.232,315.221,256,309.333,256z"/>
<path d="M416,256h-64c-5.888,0-10.667-4.768-10.667-10.667c0-5.899,4.779-10.667,10.667-10.667h64
	c5.888,0,10.667,4.768,10.667,10.667C426.667,251.232,421.888,256,416,256z"/>
<path d="M416,298.667H277.333c-5.888,0-10.667-4.768-10.667-10.667c0-5.899,4.779-10.667,10.667-10.667H416
	c5.888,0,10.667,4.768,10.667,10.667C426.667,293.899,421.888,298.667,416,298.667z"/>
<path d="M394.667,341.333H277.333c-5.888,0-10.667-4.768-10.667-10.667S271.445,320,277.333,320h117.333
	c5.888,0,10.667,4.768,10.667,10.667S400.555,341.333,394.667,341.333z"/>
<circle cx="234.667" cy="96" r="10.667"/>
</svg>